<svg width="60" height="58" viewBox="0 0 60 58" fill="none" xmlns="http://www.w3.org/2000/svg">
<path fill-rule="evenodd" clip-rule="evenodd" d="M30.8118 5.27276C17.5863 5.27276 6.94323 15.7068 6.94323 28.4829C6.94323 30.9394 7.43663 33.2736 7.94897 35.0226C8.20283 35.8893 8.45554 36.5927 8.6413 37.0717C8.73401 37.3108 8.80954 37.4926 8.85949 37.6095C8.88445 37.6679 8.90297 37.7099 8.91399 37.7347L8.9239 37.7568C9.17923 38.3091 9.23429 38.9319 9.07974 39.5198L5.69915 52.3799L18.6032 49.1923C19.3825 48.9998 20.2069 49.1668 20.847 49.6448C20.8523 49.6485 20.8622 49.6553 20.8768 49.6649C20.9255 49.6969 21.0266 49.7607 21.1831 49.8465C21.4955 50.0178 22.0322 50.2788 22.8184 50.5511C24.3863 51.094 26.9801 51.6931 30.8118 51.6931C44.0373 51.6931 54.6804 41.259 54.6804 28.4829C54.6804 15.7068 44.0373 5.27276 30.8118 5.27276ZM3.70742 39.0445C3.69707 39.0181 3.68656 38.9911 3.6759 38.9637C3.44495 38.3682 3.14205 37.523 2.84029 36.4928C2.24141 34.4483 1.62358 31.5964 1.62358 28.4829C1.62358 12.7097 14.7349 0 30.8118 0C46.8887 0 60 12.7097 60 28.4829C60 44.2561 46.8887 56.9658 30.8118 56.9658C26.4091 56.9658 23.2202 56.2754 21.064 55.5288C20.1145 55.2001 19.3715 54.8625 18.8186 54.5731L5.47461 57.8693C2.30082 58.6505 -0.74072 55.8089 0.160821 52.5361L3.70742 39.0445Z" fill="white"/>
<path d="M15.4629 27.0043C12.2628 19.808 17.6979 16.6117 20.8154 15.913C20.8154 15.913 22.917 15.4882 23.5818 16.4378C27.1601 21.549 27.1751 23.1203 27.0744 23.9909C26.882 24.6917 25.7356 26.4756 25.018 27.2333C26.9149 30.2366 29.578 32.2612 33.5178 33.6785C35.5769 30.6527 36.8042 30.1655 37.64 30.439C39.2208 30.9564 42.7836 32.2275 44.3887 33.1723C45.9938 34.1172 45.5439 36.648 45.1183 37.7953C44.6441 39.2576 42.4845 42.1821 37.64 42.1821C31.5843 42.1821 19.4631 35.9996 15.4629 27.0043Z" fill="white"/>
</svg>
