<svg width="58" height="50" viewBox="0 0 58 50" fill="none" xmlns="http://www.w3.org/2000/svg">
<path fill-rule="evenodd" clip-rule="evenodd" d="M53.9263 0.212263L0.968102 21.4786C-0.368712 22.0154 -0.305639 24.0351 1.06176 24.4778L15.1578 29.0405L19.645 45.0242C20.3094 47.3907 23.1655 48.0845 24.7419 46.2623L31.0842 38.9315L44.2069 49.3601C45.957 50.7509 48.4826 49.7593 48.9478 47.4988L57.9287 3.85121C58.4351 1.39025 56.155 -0.682734 53.9263 0.212263ZM17.1623 28.1724L21.942 43.3618L24.0927 32.2305C24.0927 32.2305 47.4909 9.92773 47.7919 9.5054C47.4329 8.04583 42.657 11.2603 33.9885 17.0947C29.4305 20.1624 23.7964 23.9545 17.1623 28.1724Z" fill="url(#paint0_linear_481_6)"/>
<defs>
<linearGradient id="paint0_linear_481_6" x1="54" y1="-1.47984e-07" x2="4" y2="50" gradientUnits="userSpaceOnUse">
<stop stop-color="#9E5CB0"/>
<stop offset="1" stop-color="#835CB0"/>
</linearGradient>
</defs>
</svg>
